# xmcd
#
# Track frame offsets: 
#        183
#        21483
#        54770
#
# Disc length: 1076 seconds
#
# Revision: 0
# Processed by: cddbd v1.5.2PL0 Copyright (c) Steve Scherf et al.
# Submitted via: ExactAudioCopy v1.0b1
#
DISCID=1c043203
DTITLE=The Consequences - These Are The Consequences CDS
DYEAR=1988
DGENRE=Pop
TTITLE0=These Are The Consequences
TTITLE1=These Are The Consequences (Extended Dance Version)
TTITLE2=These Are The Consequences (Extended Instrumental Version)
EXTD=
EXTT0=
EXTT1=
EXTT2=
PLAYORDER=
